<svg width="138" height="140" viewBox="0 0 138 140" fill="none" xmlns="http://www.w3.org/2000/svg">
<path d="M69 25.2803C93.4722 25.2804 113.314 45.2514 113.314 69.8916C113.314 94.532 93.4723 114.504 69 114.504C44.5276 114.504 24.6855 94.532 24.6855 69.8916C24.6857 45.2513 44.5277 25.2803 69 25.2803Z" stroke="#333333" stroke-width="0.594828"/>
<path d="M69 0.297852C106.94 0.297852 137.702 31.4528 137.702 69.8926C137.702 108.332 106.94 139.487 69 139.487C31.0603 139.487 0.298031 108.332 0.297852 69.8926C0.297852 31.4528 31.0602 0.297852 69 0.297852Z" stroke="#333333" stroke-width="0.594828"/>
<path d="M11.5573 65.9019C11.1666 65.6355 10.8543 65.2613 10.6203 64.7795C10.3783 64.2882 10.2811 63.7339 10.3288 63.1163C10.3779 62.4813 10.5745 61.919 10.9186 61.4293C11.2634 60.931 11.7256 60.5555 12.3051 60.3027C12.876 60.0494 13.5267 59.9509 14.2574 60.0074C14.9793 60.0632 15.6115 60.2608 16.1541 60.6003C16.6966 60.9397 17.1042 61.3825 17.377 61.9286C17.6505 62.466 17.7627 63.0522 17.7136 63.6871C17.6665 64.296 17.49 64.8249 17.1841 65.2737C16.8701 65.7132 16.4993 66.0389 16.0717 66.2509L20.7817 66.615L20.6899 67.8023L10.1477 66.9874L10.2395 65.8001L11.5573 65.9019ZM14.1636 61.2208C13.6243 61.1791 13.1462 61.2515 12.7292 61.438C12.3123 61.6246 11.985 61.8968 11.7473 62.2547C11.5104 62.6039 11.3747 63.0003 11.3404 63.4439C11.3068 63.8788 11.3843 64.2916 11.5728 64.6825C11.7533 65.0639 12.0392 65.3835 12.4306 65.6413C12.8139 65.8897 13.2708 66.0344 13.8014 66.0754C14.3407 66.1171 14.8232 66.045 15.2488 65.8591C15.6664 65.6639 15.998 65.392 16.2437 65.0435C16.4814 64.6856 16.617 64.2892 16.6507 63.8543C16.685 63.4107 16.6118 62.9982 16.4313 62.6167C16.2428 62.2259 15.9569 61.9063 15.5735 61.6579C15.1815 61.4089 14.7115 61.2631 14.1636 61.2208Z" fill="#333333"/>
<path d="M8.8884 56.1944L18.4007 58.0087L18.1776 59.1785L8.66528 57.3641L8.8884 56.1944Z" fill="#333333"/>
<path d="M15.0914 55.5873C14.391 55.3716 13.8218 55.0412 13.3838 54.5959C12.9375 54.1481 12.6442 53.6333 12.5038 53.0516C12.3661 52.4614 12.3909 51.862 12.5783 51.2534C12.7632 50.6531 13.0529 50.1717 13.4474 49.8094C13.8419 49.4471 14.2685 49.2179 14.7272 49.1218L13.4765 48.7367L13.8308 47.5861L20.6845 49.6965L20.3302 50.8471L19.0545 50.4543C19.3854 50.8026 19.6149 51.243 19.7431 51.7754C19.8655 52.2969 19.8355 52.8537 19.6532 53.4456C19.4658 54.0543 19.1463 54.5584 18.6946 54.9579C18.243 55.3574 17.7026 55.6154 17.0733 55.732C16.4441 55.8486 15.7834 55.8004 15.0914 55.5873ZM16.8908 49.788C16.3739 49.6289 15.8915 49.5944 15.4438 49.6848C14.9961 49.7751 14.617 49.9688 14.3065 50.2657C13.9902 50.5517 13.7666 50.9073 13.6356 51.3325C13.5047 51.7577 13.4854 52.1762 13.5777 52.5881C13.6699 52.9999 13.8757 53.369 14.1951 53.6956C14.5144 54.0221 14.9326 54.265 15.4495 54.4242C15.9748 54.5859 16.4655 54.6229 16.9216 54.5351C17.3693 54.4448 17.7513 54.2566 18.0676 53.9706C18.3755 53.682 18.5949 53.3251 18.7259 52.8999C18.8568 52.4747 18.8761 52.0562 18.7839 51.6444C18.6858 51.2217 18.4771 50.847 18.1578 50.5205C17.8301 50.1914 17.4078 49.9472 16.8908 49.788Z" fill="#333333"/>
<path d="M16.2082 42.0275C16.5953 41.2456 17.1473 40.7304 17.8642 40.4818C18.5733 40.2292 19.3735 40.3236 20.2648 40.7649L24.0529 42.6402L23.5303 43.6957L19.8947 41.8959C19.2536 41.5785 18.6856 41.4968 18.1907 41.6509C17.688 41.8012 17.2992 42.1539 17.0244 42.709C16.7457 43.2719 16.6991 43.8086 16.8845 44.3189C17.0737 44.8215 17.5046 45.2392 18.177 45.5721L21.7305 47.3313L21.2021 48.3985L14.7753 45.2168L15.3037 44.1496L16.2184 44.6025C15.9946 44.2288 15.8817 43.8176 15.88 43.369C15.8821 42.9125 15.9915 42.4653 16.2082 42.0275Z" fill="#333333"/>
<path d="M20.7041 36.4373L24.2281 38.7714C24.519 38.9641 24.7673 39.0395 24.9728 38.9978C25.1711 38.9512 25.3714 38.7752 25.5737 38.4697L26.0579 37.7387L26.898 38.2951L26.3054 39.1898C25.9393 39.7425 25.5374 40.0728 25.0998 40.1806C24.6621 40.2884 24.1524 40.1496 23.5705 39.7642L20.0465 37.4301L19.5335 38.2048L18.7152 37.6628L19.2283 36.8882L17.7227 35.891L18.3802 34.8981L19.8858 35.8954L20.9192 34.3352L21.7374 34.8772L20.7041 36.4373Z" fill="#333333"/>
<path d="M30.3172 34.1609C30.167 34.3309 29.9811 34.4228 29.7595 34.4365C29.5378 34.4502 29.342 34.382 29.172 34.2318C29.002 34.0816 28.9102 33.8957 28.8965 33.674C28.8827 33.4524 28.951 33.2565 29.1012 33.0865C29.2456 32.9231 29.4257 32.8378 29.6416 32.8306C29.8632 32.8169 30.0591 32.8851 30.2291 33.0353C30.399 33.1855 30.4909 33.3714 30.5046 33.5931C30.5241 33.8082 30.4616 33.9975 30.3172 34.1609Z" fill="#333333"/>
<path d="M31.1871 24.8973C31.1125 24.4304 31.1699 23.9464 31.3594 23.4454C31.5502 22.9321 31.8865 22.4807 32.3681 22.0913C32.8634 21.6908 33.4071 21.4475 33.9993 21.3613C34.5983 21.2696 35.1887 21.3476 35.7704 21.5953C36.3467 21.8362 36.8652 22.2415 37.3259 22.8114C37.7812 23.3745 38.0718 23.9697 38.1977 24.5972C38.3236 25.2246 38.2817 25.825 38.0722 26.3984C37.8694 26.9662 37.5204 27.4504 37.0252 27.8508C36.5503 28.2348 36.0447 28.4697 35.5083 28.5556C34.9732 28.6293 34.4818 28.5835 34.034 28.4182L37.0043 32.0917L36.0783 32.8404L29.4301 24.6183L30.3561 23.8696L31.1871 24.8973ZM36.3796 23.5766C36.0395 23.156 35.6585 22.8582 35.2365 22.6833C34.8146 22.5084 34.392 22.4574 33.9686 22.5305C33.5521 22.5981 33.1708 22.7717 32.8248 23.0515C32.4856 23.3257 32.2387 23.6656 32.0841 24.0711C31.9309 24.4643 31.8949 24.8916 31.9764 25.3531C32.0591 25.8023 32.2678 26.2338 32.6024 26.6476C32.9425 27.0682 33.3262 27.3694 33.7536 27.5511C34.1823 27.7205 34.6077 27.7748 35.0298 27.7141C35.4531 27.641 35.8344 27.4673 36.1736 27.1931C36.5196 26.9133 36.7692 26.5768 36.9225 26.1836C37.0771 25.7782 37.113 25.3508 37.0303 24.9016C36.942 24.4457 36.7251 24.004 36.3796 23.5766Z" fill="#333333"/>
<path d="M36.4361 16.288L41.6346 24.4582L40.6298 25.0975L35.4314 16.9273L36.4361 16.288Z" fill="#333333"/>
<path d="M41.1775 20.3606C40.8548 19.7027 40.7056 19.0616 40.7299 18.4376C40.7504 17.8056 40.9244 17.2393 41.2521 16.7385C41.5876 16.2338 42.0413 15.8413 42.6131 15.5609C43.177 15.2843 43.7261 15.1656 44.2604 15.2048C44.7946 15.244 45.2538 15.3977 45.638 15.666L45.0618 14.4911L46.1427 13.9609L49.3005 20.3995L48.2196 20.9296L47.6318 19.7312C47.6047 20.2109 47.4412 20.6798 47.1411 21.1379C46.8451 21.5843 46.419 21.9439 45.8629 22.2167C45.2911 22.4971 44.705 22.6096 44.1045 22.5543C43.5041 22.499 42.9459 22.2821 42.4298 21.9036C41.9138 21.525 41.4964 21.0107 41.1775 20.3606ZM46.6349 17.6986C46.3967 17.213 46.0914 16.838 45.7188 16.5737C45.3463 16.3095 44.9455 16.1659 44.5165 16.1431C44.0915 16.1087 43.6793 16.1894 43.2798 16.3853C42.8803 16.5812 42.5622 16.8539 42.3254 17.2032C42.0886 17.5525 41.9607 17.9554 41.9416 18.4117C41.9225 18.8681 42.032 19.3391 42.2702 19.8247C42.5122 20.3182 42.8214 20.701 43.1978 20.9731C43.5703 21.2373 43.9691 21.3867 44.3941 21.4212C44.8153 21.4478 45.2256 21.3632 45.6251 21.1672C46.0246 20.9713 46.3427 20.6987 46.5795 20.3493C46.8202 19.9883 46.9502 19.5797 46.9693 19.1233C46.9846 18.6591 46.8731 18.1842 46.6349 17.6986Z" fill="#333333"/>
<path d="M51.7513 11.9041C52.585 11.6474 53.3387 11.6937 54.0123 12.0432C54.6833 12.3842 55.1651 13.03 55.4578 13.9806L56.7017 18.0202L55.5761 18.3668L54.3822 14.4897C54.1717 13.806 53.8403 13.3376 53.3881 13.0843C52.9333 12.8227 52.4099 12.7831 51.8179 12.9653C51.2175 13.1502 50.7959 13.4854 50.5529 13.971C50.3182 14.4541 50.3113 15.0541 50.5321 15.7711L51.699 19.5607L50.5609 19.9111L48.4505 13.0575L49.5886 12.707L49.889 13.6825C50.0063 13.263 50.2271 12.8983 50.5516 12.5885C50.8845 12.276 51.2843 12.0479 51.7513 11.9041Z" fill="#333333"/>
<path d="M58.9552 11.3339L59.6676 15.5003C59.7264 15.8443 59.8414 16.0769 60.0126 16.198C60.1823 16.3106 60.4477 16.3361 60.8089 16.2743L61.6731 16.1265L61.843 17.1198L60.7852 17.3006C60.1317 17.4124 59.6158 17.3457 59.2376 17.1006C58.8593 16.8555 58.6114 16.3889 58.4938 15.701L57.7814 11.5346L56.8656 11.6912L56.7001 10.7238L57.616 10.5672L57.3116 8.78713L58.4854 8.58643L58.7898 10.3665L60.6343 10.0511L60.7998 11.0185L58.9552 11.3339Z" fill="#333333"/>
<path d="M67.1496 16.7816C66.9229 16.7886 66.7286 16.716 66.5668 16.5639C66.405 16.4118 66.3206 16.2224 66.3136 15.9957C66.3066 15.769 66.3792 15.5747 66.5313 15.4129C66.6834 15.2511 66.8728 15.1667 67.0995 15.1597C67.3175 15.1529 67.5031 15.2258 67.6561 15.3781C67.8179 15.5303 67.9024 15.7197 67.9094 15.9464C67.9164 16.1731 67.8438 16.3674 67.6917 16.5292C67.5483 16.6907 67.3676 16.7749 67.1496 16.7816Z" fill="#333333"/>
<path d="M74.7212 11.0811C75.0112 10.7076 75.4038 10.4189 75.8992 10.2149C76.4043 10.0036 76.9637 9.94068 77.5771 10.0263C78.2079 10.1143 78.757 10.3451 79.2246 10.7187C79.7008 11.0935 80.0472 11.5779 80.2638 12.1718C80.4816 12.7572 80.5399 13.4128 80.4386 14.1386C80.3385 14.8557 80.1023 15.4746 79.7302 15.9952C79.358 16.5158 78.891 16.8955 78.3292 17.1342C77.776 17.3741 77.184 17.45 76.5533 17.362C75.9484 17.2776 75.4314 17.0689 75.0022 16.7359C74.5829 16.3955 74.2806 16.0054 74.0953 15.5655L73.4423 20.2443L72.2629 20.0796L73.7245 9.6075L74.9039 9.77212L74.7212 11.0811ZM79.2332 13.9703C79.308 13.4346 79.2651 12.953 79.1046 12.5254C78.944 12.0978 78.6925 11.7543 78.3499 11.4951C78.0159 11.2371 77.6286 11.0773 77.188 11.0158C76.756 10.9555 76.3391 11.0075 75.9374 11.1716C75.5456 11.3283 75.209 11.5941 74.9277 11.9688C74.6562 12.3361 74.4837 12.7833 74.4101 13.3104C74.3353 13.8461 74.3776 14.332 74.5369 14.7683C74.7061 15.1971 74.9571 15.5448 75.2898 15.8115C75.6324 16.0707 76.0197 16.2305 76.4517 16.2908C76.8924 16.3523 77.3086 16.3047 77.7005 16.148C78.1022 15.9838 78.4388 15.7181 78.7102 15.3508C78.9829 14.9748 79.1573 14.5147 79.2332 13.9703Z" fill="#333333"/>
<path d="M84.5472 9.02137L82.1566 18.4054L81.0026 18.1114L83.3932 8.72738L84.5472 9.02137Z" fill="#333333"/>
<path d="M84.8264 15.2741C85.0864 14.5889 85.4526 14.0421 85.9249 13.6334C86.4004 13.2167 86.9329 12.9569 87.5225 12.854C88.1202 12.7543 88.7168 12.8174 89.3122 13.0433C89.8995 13.2662 90.3613 13.5861 90.6976 14.003C91.0339 14.4199 91.2354 14.8603 91.302 15.3242L91.7663 14.1007L92.8919 14.5279L90.3474 21.2325L89.2218 20.8053L89.6954 19.5574C89.3266 19.8653 88.8725 20.0662 88.333 20.1601C87.8047 20.2489 87.251 20.1834 86.6719 19.9636C86.0765 19.7376 85.5939 19.3865 85.2241 18.9102C84.8543 18.434 84.6313 17.8781 84.5552 17.2427C84.4791 16.6073 84.5695 15.9511 84.8264 15.2741ZM90.4987 17.4408C90.6906 16.9351 90.7558 16.4559 90.6943 16.0033C90.6328 15.5507 90.4638 15.16 90.1874 14.8312C89.9222 14.4972 89.5816 14.2513 89.1656 14.0935C88.7496 13.9356 88.3332 13.8895 87.9163 13.9553C87.4995 14.021 87.1179 14.2028 86.7716 14.5006C86.4253 14.7984 86.1562 15.2002 85.9642 15.7059C85.7692 16.2198 85.7009 16.7071 85.7594 17.1678C85.8209 17.6204 85.9842 18.0136 86.2494 18.3476C86.5177 18.6733 86.8598 18.9152 87.2758 19.073C87.6918 19.2309 88.1082 19.277 88.5251 19.2112C88.9532 19.1404 89.3404 18.9561 89.6867 18.6583C90.0361 18.3523 90.3068 17.9465 90.4987 17.4408Z" fill="#333333"/>
<path d="M98.2287 17.228C98.9847 17.6634 99.4642 18.2466 99.6673 18.9777C99.8748 19.7013 99.7304 20.494 99.234 21.3558L97.1245 25.0186L96.1039 24.4308L98.1285 20.9154C98.4855 20.2955 98.6027 19.7338 98.48 19.2302C98.3616 18.719 98.034 18.3089 97.4973 17.9997C96.9529 17.6863 96.4203 17.606 95.8993 17.759C95.3858 17.9163 94.9419 18.32 94.5674 18.9702L92.5885 22.4062L91.5566 21.8119L95.1356 15.5976L96.1675 16.1919L95.6581 17.0764C96.0451 16.8765 96.4625 16.7897 96.9104 16.8161C97.3659 16.8469 97.8053 16.9842 98.2287 17.228Z" fill="#333333"/>
<path d="M103.53 22.0725L100.981 25.4448C100.771 25.7232 100.68 25.9662 100.709 26.174C100.743 26.3748 100.906 26.5856 101.199 26.8065L101.898 27.3351L101.291 28.139L100.435 27.4921C99.9056 27.0923 99.601 26.6707 99.5206 26.2272C99.4402 25.7837 99.6104 25.2836 100.031 24.7268L102.58 21.3546L101.838 20.7944L102.43 20.0114L103.171 20.5715L104.26 19.1308L105.21 19.8488L104.121 21.2895L105.614 22.4178L105.023 23.2008L103.53 22.0725Z" fill="#333333"/>
<path d="M105.171 31.7843C105.011 31.624 104.93 31.4327 104.93 31.2106C104.93 30.9886 105.011 30.7973 105.171 30.6369C105.331 30.4765 105.523 30.3963 105.745 30.3963C105.967 30.3963 106.158 30.4765 106.318 30.6369C106.473 30.7912 106.547 30.9762 106.541 31.1921C106.541 31.4142 106.46 31.6055 106.3 31.7658C106.14 31.9262 105.948 32.0064 105.726 32.0064C105.51 32.0126 105.325 31.9386 105.171 31.7843Z" fill="#333333"/>
<path d="M114.342 33.1992C114.813 33.1536 115.292 33.2409 115.781 33.4611C116.281 33.6834 116.711 34.0469 117.07 34.5518C117.439 35.0709 117.648 35.6287 117.697 36.2251C117.751 36.8287 117.637 37.4131 117.354 37.9783C117.078 38.5385 116.641 39.0309 116.044 39.4554C115.453 39.875 114.841 40.1281 114.207 40.2149C113.573 40.3016 112.976 40.2226 112.417 39.978C111.863 39.7404 111.401 39.362 111.032 38.8429C110.679 38.3452 110.476 37.826 110.423 37.2853C110.383 36.7467 110.459 36.259 110.652 35.8224L106.801 38.5593L106.111 37.5887L114.729 31.4628L115.419 32.4335L114.342 33.1992ZM115.338 38.4635C115.779 38.1501 116.1 37.7883 116.301 37.378C116.502 36.9678 116.579 36.5491 116.532 36.122C116.49 35.702 116.341 35.3107 116.083 34.9481C115.83 34.5925 115.506 34.3251 115.111 34.1457C114.728 33.9683 114.304 33.906 113.838 33.9586C113.385 34.0134 112.941 34.1949 112.507 34.5032C112.067 34.8166 111.742 35.1809 111.534 35.5962C111.339 36.0136 111.258 36.4348 111.293 36.8598C111.339 37.2869 111.489 37.6782 111.742 38.0338C111.999 38.3964 112.32 38.6664 112.703 38.8438C113.098 39.0232 113.522 39.0855 113.976 39.0308C114.436 38.971 114.89 38.7819 115.338 38.4635Z" fill="#333333"/>
<path d="M122.628 39.0028L114.149 43.6802L113.573 42.6375L122.053 37.9601L122.628 39.0028Z" fill="#333333"/>
<path d="M118.267 43.4756C118.944 43.1952 119.594 43.0868 120.215 43.1506C120.844 43.211 121.398 43.4205 121.878 43.7792C122.36 44.146 122.723 44.6236 122.967 45.2119C123.207 45.7923 123.291 46.3478 123.218 46.8785C123.145 47.4091 122.962 47.8577 122.67 48.2242L123.879 47.7234L124.34 48.8357L117.715 51.5799L117.254 50.4676L118.487 49.9568C118.01 49.8994 117.553 49.7065 117.114 49.3781C116.688 49.0544 116.356 48.6064 116.119 48.0341C115.875 47.4457 115.8 46.8537 115.893 46.2579C115.986 45.6622 116.238 45.1188 116.648 44.6278C117.059 44.1368 117.598 43.7527 118.267 43.4756ZM120.579 49.0905C121.079 48.8835 121.472 48.6025 121.759 48.2474C122.047 47.8923 122.215 47.5014 122.265 47.0747C122.326 46.6528 122.272 46.2362 122.102 45.8252C121.931 45.4141 121.68 45.0794 121.346 44.821C121.012 44.5625 120.618 44.4094 120.164 44.3614C119.71 44.3135 119.233 44.393 118.733 44.6C118.225 44.8103 117.824 45.0947 117.528 45.4531C117.241 45.8082 117.067 46.1967 117.005 46.6187C116.952 47.0373 117.011 47.4522 117.181 47.8632C117.351 48.2743 117.603 48.609 117.937 48.8674C118.282 49.1306 118.682 49.2861 119.136 49.334C119.598 49.3786 120.079 49.2975 120.579 49.0905Z" fill="#333333"/>
<path d="M126.028 54.5036C126.23 55.3522 126.135 56.1013 125.743 56.7509C125.36 57.3986 124.684 57.8378 123.717 58.0686L119.605 59.0497L119.332 57.9041L123.278 56.9625C123.974 56.7965 124.463 56.496 124.745 56.061C125.035 55.6239 125.108 55.1042 124.964 54.5017C124.819 53.8907 124.511 53.4483 124.042 53.1746C123.575 52.9093 122.977 52.8637 122.247 53.0378L118.39 53.9582L118.114 52.7998L125.089 51.1354L125.366 52.2937L124.373 52.5306C124.784 52.6747 125.134 52.9186 125.422 53.2624C125.712 53.6146 125.914 54.0284 126.028 54.5036Z" fill="#333333"/>
<path d="M126.144 61.6504L121.942 62.1057C121.595 62.1433 121.355 62.2438 121.224 62.4073C121.101 62.5698 121.059 62.8331 121.099 63.1974L121.193 64.0691L120.192 64.1777L120.076 63.1108C120.005 62.4516 120.103 61.9408 120.371 61.5783C120.638 61.2159 121.119 60.997 121.813 60.9218L126.015 60.4665L125.915 59.5428L126.891 59.437L126.991 60.3607L128.787 60.1662L128.915 61.3501L127.12 61.5446L127.321 63.4051L126.345 63.5108L126.144 61.6504Z" fill="#333333"/>
<path d="M125.935 74.0669C126.326 74.3333 126.638 74.7075 126.872 75.1893C127.114 75.6805 127.211 76.2349 127.164 76.8525C127.115 77.4875 126.918 78.0498 126.574 78.5394C126.229 79.0378 125.767 79.4133 125.187 79.666C124.617 79.9194 123.966 80.0179 123.235 79.9614C122.513 79.9056 121.881 79.7079 121.338 79.3685C120.796 79.0291 120.388 78.5863 120.116 78.0402C119.842 77.5028 119.73 76.9166 119.779 76.2816C119.826 75.6728 120.003 75.1439 120.308 74.695C120.622 74.2556 120.993 73.9298 121.421 73.7179L116.711 73.3538L116.803 72.1665L127.345 72.9814L127.253 74.1687L125.935 74.0669ZM123.329 78.748C123.868 78.7897 124.346 78.7172 124.763 78.5307C125.18 78.3442 125.508 78.072 125.745 77.7141C125.982 77.3649 126.118 76.9685 126.152 76.5249C126.186 76.09 126.108 75.6771 125.92 75.2863C125.739 74.9048 125.453 74.5852 125.062 74.3275C124.679 74.0791 124.222 73.9344 123.691 73.8934C123.152 73.8517 122.669 73.9238 122.244 74.1096C121.826 74.3049 121.495 74.5767 121.249 74.9252C121.011 75.2831 120.876 75.6795 120.842 76.1144C120.808 76.558 120.881 76.9706 121.061 77.352C121.25 77.7429 121.536 78.0625 121.919 78.3109C122.311 78.5599 122.781 78.7056 123.329 78.748Z" fill="#333333"/>
<path d="M128.604 83.7744L119.092 81.9601L119.315 80.7903L128.827 82.6047L128.604 83.7744Z" fill="#333333"/>
<path d="M122.401 84.3815C123.102 84.5971 123.671 84.9276 124.109 85.3728C124.555 85.8206 124.848 86.3354 124.989 86.9172C125.126 87.5073 125.102 88.1067 124.914 88.7154C124.729 89.3157 124.44 89.797 124.045 90.1593C123.651 90.5217 123.224 90.7509 122.765 90.847L124.016 91.2321L123.662 92.3827L116.808 90.2723L117.162 89.1217L118.438 89.5145C118.107 89.1661 117.878 88.7257 117.749 88.1933C117.627 87.6719 117.657 87.1151 117.839 86.5231C118.027 85.9145 118.346 85.4104 118.798 85.0109C119.25 84.6114 119.79 84.3533 120.419 84.2367C121.048 84.1201 121.709 84.1684 122.401 84.3815ZM120.602 90.1807C121.119 90.3399 121.601 90.3743 122.049 90.284C122.496 90.1936 122.876 90 123.186 89.7031C123.502 89.4171 123.726 89.0615 123.857 88.6363C123.988 88.211 124.007 87.7925 123.915 87.3807C123.823 86.9689 123.617 86.5997 123.297 86.2732C122.978 85.9466 122.56 85.7038 122.043 85.5446C121.518 85.3828 121.027 85.3459 120.571 85.4336C120.123 85.524 119.741 85.7122 119.425 85.9982C119.117 86.2867 118.898 86.6436 118.767 87.0689C118.636 87.4941 118.616 87.9126 118.709 88.3244C118.807 88.7471 119.015 89.1217 119.335 89.4483C119.662 89.7774 120.085 90.0215 120.602 90.1807Z" fill="#333333"/>
<path d="M121.284 97.9413C120.897 98.7231 120.345 99.2384 119.628 99.487C118.919 99.7395 118.119 99.6451 117.228 99.2039L113.44 97.3286L113.962 96.2731L117.598 98.0729C118.239 98.3903 118.807 98.4719 119.302 98.3178C119.805 98.1676 120.193 97.8149 120.468 97.2598C120.747 96.6969 120.793 96.1602 120.608 95.6498C120.419 95.1473 119.988 94.7296 119.316 94.3967L115.762 92.6375L116.29 91.5702L122.717 94.7519L122.189 95.8192L121.274 95.3663C121.498 95.7399 121.611 96.1511 121.613 96.5998C121.61 97.0563 121.501 97.5035 121.284 97.9413Z" fill="#333333"/>
<path d="M116.788 103.531L113.264 101.197C112.974 101.005 112.725 100.929 112.52 100.971C112.321 101.018 112.121 101.194 111.919 101.499L111.435 102.23L110.595 101.674L111.187 100.779C111.553 100.226 111.955 99.8959 112.393 99.7882C112.83 99.6804 113.34 99.8192 113.922 100.205L117.446 102.539L117.959 101.764L118.777 102.306L118.264 103.081L119.77 104.078L119.112 105.071L117.607 104.073L116.573 105.634L115.755 105.092L116.788 103.531Z" fill="#333333"/>
<path d="M107.175 105.808C107.326 105.638 107.511 105.546 107.733 105.532C107.955 105.519 108.151 105.587 108.321 105.737C108.491 105.887 108.582 106.073 108.596 106.295C108.61 106.516 108.542 106.712 108.391 106.882C108.247 107.046 108.067 107.131 107.851 107.138C107.629 107.152 107.433 107.084 107.263 106.933C107.093 106.783 107.002 106.597 106.988 106.376C106.968 106.161 107.031 105.971 107.175 105.808Z" fill="#333333"/>
<path d="M106.305 115.071C106.38 115.538 106.323 116.022 106.133 116.523C105.942 117.037 105.606 117.488 105.124 117.878C104.629 118.278 104.085 118.521 103.493 118.607C102.894 118.699 102.304 118.621 101.722 118.373C101.146 118.133 100.627 117.727 100.167 117.157C99.7113 116.594 99.4207 115.999 99.2949 115.372C99.169 114.744 99.2108 114.144 99.4204 113.57C99.6231 113.003 99.9721 112.518 100.467 112.118C100.942 111.734 101.448 111.499 101.984 111.413C102.519 111.34 103.011 111.385 103.459 111.551L100.488 107.877L101.414 107.128L108.062 115.35L107.136 116.099L106.305 115.071ZM101.113 116.392C101.453 116.813 101.834 117.111 102.256 117.285C102.678 117.46 103.101 117.511 103.524 117.438C103.94 117.371 104.322 117.197 104.668 116.917C105.007 116.643 105.254 116.303 105.408 115.898C105.562 115.504 105.598 115.077 105.516 114.616C105.433 114.167 105.225 113.735 104.89 113.321C104.55 112.901 104.166 112.599 103.739 112.418C103.31 112.248 102.885 112.194 102.463 112.255C102.039 112.328 101.658 112.501 101.319 112.776C100.973 113.055 100.723 113.392 100.57 113.785C100.415 114.191 100.38 114.618 100.462 115.067C100.55 115.523 100.767 115.965 101.113 116.392Z" fill="#333333"/>
<path d="M101.056 123.681L95.858 115.511L96.8627 114.871L102.061 123.042L101.056 123.681Z" fill="#333333"/>
<path d="M96.315 119.608C96.6377 120.266 96.7869 120.907 96.7626 121.531C96.7422 122.163 96.5681 122.729 96.2404 123.23C95.9049 123.735 95.4513 124.127 94.8795 124.408C94.3155 124.685 93.7664 124.803 93.2322 124.764C92.698 124.725 92.2387 124.571 91.8545 124.303L92.4308 125.478L91.3499 126.008L88.192 119.569L89.273 119.039L89.8607 120.238C89.8878 119.758 90.0514 119.289 90.3514 118.831C90.6475 118.384 91.0735 118.025 91.6297 117.752C92.2015 117.472 92.7876 117.359 93.388 117.414C93.9885 117.47 94.5467 117.687 95.0627 118.065C95.5787 118.444 95.9962 118.958 96.315 119.608ZM90.8576 122.27C91.0958 122.756 91.4012 123.131 91.7737 123.395C92.1462 123.659 92.547 123.803 92.976 123.826C93.401 123.86 93.8133 123.779 94.2128 123.583C94.6122 123.388 94.9304 123.115 95.1671 122.766C95.4039 122.416 95.5318 122.013 95.5509 121.557C95.5701 121.101 95.4605 120.63 95.2223 120.144C94.9803 119.651 94.6711 119.268 94.2947 118.996C93.9222 118.731 93.5234 118.582 93.0984 118.548C92.6772 118.521 92.2669 118.606 91.8674 118.802C91.468 118.997 91.1498 119.27 90.9131 119.619C90.6723 119.98 90.5424 120.389 90.5233 120.845C90.508 121.31 90.6195 121.785 90.8576 122.27Z" fill="#333333"/>
<path d="M85.7413 128.065C84.9075 128.321 84.1538 128.275 83.4803 127.926C82.8093 127.585 82.3275 126.939 82.0348 125.988L80.7908 121.949L81.9165 121.602L83.1103 125.479C83.3208 126.163 83.6522 126.631 84.1045 126.884C84.5593 127.146 85.0827 127.186 85.6747 127.003C86.275 126.819 86.6967 126.483 86.9396 125.998C87.1743 125.515 87.1812 124.915 86.9604 124.198L85.7935 120.408L86.9316 120.058L89.0421 126.911L87.904 127.262L87.6036 126.286C87.4863 126.706 87.2654 127.07 86.9409 127.38C86.6081 127.693 86.2082 127.921 85.7413 128.065Z" fill="#333333"/>
<path d="M78.5374 128.635L77.825 124.468C77.7662 124.125 77.6512 123.892 77.48 123.771C77.3103 123.658 77.0448 123.633 76.6836 123.694L75.8194 123.842L75.6496 122.849L76.7073 122.668C77.3609 122.556 77.8767 122.623 78.255 122.868C78.6332 123.113 78.8811 123.58 78.9988 124.268L79.7112 128.434L80.627 128.278L80.7924 129.245L79.8766 129.402L80.1809 131.182L79.0071 131.382L78.7028 129.602L76.8582 129.918L76.6928 128.95L78.5374 128.635Z" fill="#333333"/>
<path d="M70.3429 123.187C70.5697 123.18 70.7639 123.253 70.9257 123.405C71.0875 123.557 71.1719 123.746 71.1789 123.973C71.1859 124.2 71.1134 124.394 70.9613 124.556C70.8092 124.718 70.6198 124.802 70.393 124.809C70.175 124.816 69.9895 124.743 69.8364 124.591C69.6746 124.439 69.5902 124.249 69.5832 124.022C69.5762 123.796 69.6487 123.601 69.8009 123.44C69.9442 123.278 70.1249 123.194 70.3429 123.187Z" fill="#333333"/>
<path d="M62.7713 128.888C62.4813 129.261 62.0887 129.55 61.5934 129.754C61.0882 129.965 60.5289 130.028 59.9154 129.942C59.2847 129.854 58.7355 129.624 58.2679 129.25C57.7917 128.875 57.4453 128.391 57.2287 127.797C57.0109 127.212 56.9527 126.556 57.054 125.83C57.1541 125.113 57.3902 124.494 57.7624 123.974C58.1345 123.453 58.6015 123.073 59.1634 122.835C59.7166 122.595 60.3085 122.519 60.9393 122.607C61.5441 122.691 62.0611 122.9 62.4903 123.233C62.9097 123.573 63.212 123.963 63.3972 124.403L64.0502 119.725L65.2297 119.889L63.768 130.361L62.5886 130.197L62.7713 128.888ZM58.2593 125.998C58.1845 126.534 58.2274 127.016 58.388 127.443C58.5485 127.871 58.8001 128.214 59.1427 128.474C59.4766 128.732 59.8639 128.891 60.3046 128.953C60.7366 129.013 61.1534 128.961 61.5551 128.797C61.947 128.64 62.2836 128.375 62.5649 128C62.8364 127.633 63.0089 127.185 63.0825 126.658C63.1572 126.123 63.1149 125.637 62.9556 125.2C62.7864 124.772 62.5355 124.424 62.2027 124.157C61.8601 123.898 61.4728 123.738 61.0408 123.678C60.6002 123.616 60.1839 123.664 59.7921 123.821C59.3904 123.985 59.0538 124.251 58.7823 124.618C58.5096 124.994 58.3353 125.454 58.2593 125.998Z" fill="#333333"/>
<path d="M52.9453 130.947L55.336 121.563L56.49 121.857L54.0993 131.241L52.9453 130.947Z" fill="#333333"/>
<path d="M52.6661 124.695C52.4061 125.38 52.0399 125.927 51.5676 126.335C51.0922 126.752 50.5597 127.012 49.9701 127.115C49.3724 127.215 48.7758 127.151 48.1804 126.925C47.5931 126.703 47.1313 126.383 46.7949 125.966C46.4586 125.549 46.2571 125.108 46.1906 124.645L45.7262 125.868L44.6007 125.441L47.1451 118.736L48.2707 119.163L47.7971 120.411C48.1659 120.103 48.6201 119.903 49.1596 119.809C49.6878 119.72 50.2415 119.785 50.8206 120.005C51.4161 120.231 51.8987 120.582 52.2685 121.059C52.6383 121.535 52.8612 122.091 52.9373 122.726C53.0135 123.361 52.9231 124.018 52.6661 124.695ZM46.9938 122.528C46.8019 123.034 46.7367 123.513 46.7982 123.965C46.8598 124.418 47.0287 124.809 47.3052 125.138C47.5704 125.472 47.911 125.717 48.3269 125.875C48.7429 126.033 49.1593 126.079 49.5762 126.013C49.9931 125.948 50.3747 125.766 50.721 125.468C51.0673 125.17 51.3364 124.769 51.5283 124.263C51.7233 123.749 51.7916 123.262 51.7332 122.801C51.6717 122.348 51.5083 121.955 51.2431 121.621C50.9748 121.295 50.6327 121.054 50.2167 120.896C49.8007 120.738 49.3843 120.692 48.9675 120.758C48.5393 120.828 48.1521 121.013 47.8058 121.31C47.4564 121.616 47.1858 122.022 46.9938 122.528Z" fill="#333333"/>
<path d="M39.2639 122.741C38.5079 122.305 38.0283 121.722 37.8252 120.991C37.6177 120.267 37.7622 119.475 38.2585 118.613L40.3681 114.95L41.3887 115.538L39.364 119.053C39.007 119.673 38.8898 120.235 39.0126 120.739C39.131 121.25 39.4585 121.66 39.9953 121.969C40.5396 122.283 41.0723 122.363 41.5933 122.21C42.1067 122.052 42.5507 121.649 42.9251 120.999L44.904 117.563L45.936 118.157L42.3569 124.371L41.325 123.777L41.8344 122.892C41.4474 123.092 41.03 123.179 40.5821 123.153C40.1266 123.122 39.6872 122.985 39.2639 122.741Z" fill="#333333"/>
<path d="M33.9629 117.896L36.5113 114.524C36.7217 114.246 36.8124 114.003 36.7835 113.795C36.7494 113.594 36.5861 113.383 36.2938 113.162L35.5943 112.634L36.2018 111.83L37.0579 112.477C37.5869 112.876 37.8916 113.298 37.972 113.742C38.0524 114.185 37.8822 114.685 37.4614 115.242L34.913 118.614L35.6542 119.174L35.0625 119.957L34.3212 119.397L33.2324 120.838L32.2824 120.12L33.3712 118.679L31.8782 117.551L32.4699 116.768L33.9629 117.896Z" fill="#333333"/>
<path d="M32.3215 108.184C32.4819 108.345 32.5621 108.536 32.5621 108.758C32.5621 108.98 32.4819 109.171 32.3215 109.332C32.1611 109.492 31.9698 109.572 31.7478 109.572C31.5257 109.572 31.3345 109.492 31.1741 109.332C31.0198 109.178 30.9458 108.993 30.952 108.777C30.952 108.555 31.0322 108.363 31.1926 108.203C31.353 108.043 31.5442 107.962 31.7663 107.962C31.9822 107.956 32.1673 108.03 32.3215 108.184Z" fill="#333333"/>
<path d="M23.1505 106.77C22.6798 106.815 22.2003 106.728 21.712 106.508C21.2115 106.285 20.7818 105.922 20.423 105.417C20.054 104.898 19.8448 104.34 19.7955 103.744C19.7411 103.14 19.8556 102.556 20.1388 101.99C20.415 101.43 20.8517 100.938 21.449 100.513C22.0392 100.094 22.6513 99.8407 23.2854 99.7539C23.9194 99.6672 24.5161 99.7461 25.0753 99.9908C25.6295 100.228 26.0911 100.607 26.4601 101.126C26.8139 101.624 27.017 102.143 27.0695 102.683C27.1099 103.222 27.0337 103.71 26.841 104.146L30.6915 101.409L31.3814 102.38L22.7631 108.506L22.0732 107.535L23.1505 106.77ZM22.1541 101.505C21.7132 101.819 21.3924 102.18 21.1917 102.591C20.9909 103.001 20.9139 103.42 20.9606 103.847C21.0022 104.267 21.1519 104.658 21.4096 105.021C21.6624 105.376 21.9863 105.644 22.3814 105.823C22.7643 106 23.1886 106.063 23.6542 106.01C24.1077 105.955 24.5513 105.774 24.9851 105.466C25.4259 105.152 25.7503 104.788 25.9581 104.373C26.1538 103.955 26.2344 103.534 26.1999 103.109C26.1532 102.682 26.0035 102.291 25.7508 101.935C25.4931 101.572 25.1727 101.302 24.7898 101.125C24.3946 100.946 23.9704 100.883 23.5169 100.938C23.0563 100.998 22.6021 101.187 22.1541 101.505Z" fill="#333333"/>
<path d="M14.8648 100.966L23.344 96.2886L23.9192 97.3313L15.44 102.009L14.8648 100.966Z" fill="#333333"/>
<path d="M19.2251 96.4932C18.5481 96.7736 17.8989 96.8819 17.2776 96.8182C16.6483 96.7578 16.094 96.5483 15.615 96.1896C15.1326 95.8228 14.7695 95.3452 14.5258 94.7568C14.2855 94.1765 14.2017 93.621 14.2747 93.0903C14.3476 92.5596 14.5301 92.1111 14.8221 91.7446L13.6131 92.2454L13.1524 91.1331L19.7778 88.3889L20.2385 89.5012L19.0053 90.012C19.4823 90.0694 19.94 90.2623 20.3781 90.5907C20.8049 90.9144 21.1369 91.3624 21.3739 91.9346C21.6176 92.523 21.6928 93.1151 21.5996 93.7108C21.5064 94.3065 21.2546 94.8499 20.8442 95.341C20.4338 95.832 19.8941 96.2161 19.2251 96.4932ZM16.9137 90.8783C16.414 91.0853 16.0205 91.3663 15.7332 91.7214C15.4459 92.0764 15.2773 92.4673 15.2274 92.894C15.1661 93.316 15.2206 93.7325 15.3908 94.1436C15.5611 94.5547 15.813 94.8894 16.1467 95.1478C16.4803 95.4062 16.8743 95.5594 17.3285 95.6073C17.7827 95.6553 18.2597 95.5757 18.7594 95.3688C19.2672 95.1585 19.6688 94.8741 19.9642 94.5157C20.2515 94.1606 20.4258 93.7721 20.4871 93.3501C20.5403 92.9315 20.4818 92.5166 20.3115 92.1055C20.1413 91.6945 19.8893 91.3597 19.5557 91.1013C19.2106 90.8382 18.811 90.6827 18.3567 90.6347C17.8944 90.5901 17.4134 90.6713 16.9137 90.8783Z" fill="#333333"/>
<path d="M11.4649 85.4652C11.2624 84.6166 11.3572 83.8675 11.7493 83.2178C12.1329 82.5702 12.8084 82.131 13.7758 81.9001L17.8872 80.9191L18.1605 82.0647L14.2146 83.0062C13.5188 83.1723 13.0299 83.4728 12.748 83.9078C12.4577 84.3448 12.3844 84.8646 12.5282 85.4671C12.6739 86.0781 12.9813 86.5204 13.4502 86.7942C13.9172 87.0595 14.5155 87.1051 15.2453 86.9309L19.1021 86.0106L19.3785 87.1689L12.4031 88.8334L12.1267 87.6751L13.1196 87.4382C12.7085 87.2941 12.3588 87.0502 12.0705 86.7064C11.7801 86.3541 11.5783 85.9404 11.4649 85.4652Z" fill="#333333"/>
<path d="M11.3488 78.3184L15.551 77.863C15.898 77.8254 16.1372 77.7249 16.2686 77.5615C16.3914 77.399 16.4331 77.1356 16.3936 76.7713L16.2992 75.8997L17.3009 75.7911L17.4165 76.8579C17.488 77.5171 17.3897 78.0279 17.1219 78.3904C16.854 78.7529 16.3732 78.9718 15.6793 79.0469L11.4771 79.5023L11.5772 80.426L10.6014 80.5317L10.5013 79.608L8.70593 79.8026L8.57764 78.6187L10.373 78.4241L10.1714 76.5637L11.1472 76.4579L11.3488 78.3184Z" fill="#333333"/>
</svg>
