<svg width="191" height="194" viewBox="0 0 191 194" fill="none" xmlns="http://www.w3.org/2000/svg">
<path d="M95.5005 34.9897C129.372 34.99 156.834 62.6313 156.834 96.7349C156.834 130.839 129.372 158.481 95.5005 158.481C61.6292 158.481 34.1665 130.839 34.1665 96.7349C34.1666 62.6311 61.6292 34.9897 95.5005 34.9897Z" stroke="#333333" stroke-width="0.823276"/>
<path d="M95.5 0.412109C148.011 0.412109 190.588 43.5325 190.588 96.7354C190.588 149.938 148.011 193.059 95.5 193.059C42.9893 193.059 0.412341 149.938 0.412109 96.7354C0.412109 43.5325 42.9891 0.412109 95.5 0.412109Z" stroke="#333333" stroke-width="0.823276"/>
<path d="M15.9956 91.2118C15.4549 90.843 15.0226 90.3251 14.6988 89.6582C14.3638 88.9783 14.2293 88.211 14.2954 87.3563C14.3633 86.4774 14.6354 85.6992 15.1117 85.0214C15.5889 84.3317 16.2285 83.8119 17.0307 83.4622C17.8207 83.1115 18.7214 82.9752 19.7327 83.0534C20.7319 83.1306 21.6069 83.4042 22.3578 83.874C23.1087 84.3438 23.6729 84.9566 24.0505 85.7124C24.429 86.4562 24.5843 87.2675 24.5163 88.1463C24.4512 88.9891 24.2069 89.721 23.7834 90.3423C23.3489 90.9506 22.8356 91.4014 22.2438 91.6947L28.7628 92.1986L28.6357 93.8419L14.0447 92.7141L14.1718 91.0708L15.9956 91.2118ZM19.6029 84.7328C18.8564 84.6751 18.1947 84.7753 17.6177 85.0335C17.0406 85.2917 16.5876 85.6684 16.2587 86.1637C15.9307 86.647 15.7429 87.1957 15.6955 87.8097C15.6489 88.4116 15.7561 88.983 16.0171 89.524C16.2669 90.0519 16.6627 90.4943 17.2043 90.851C17.7348 91.1948 18.3673 91.3951 19.1016 91.4518C19.848 91.5095 20.5158 91.4098 21.1049 91.1525C21.6829 90.8823 22.1419 90.5061 22.4819 90.0237C22.8109 89.5284 22.9986 88.9797 23.0451 88.3778C23.0926 87.7638 22.9914 87.1928 22.7416 86.6649C22.4806 86.1239 22.0849 85.6816 21.5544 85.3378C21.0118 84.9931 20.3613 84.7914 19.6029 84.7328Z" fill="#333333"/>
<path d="M12.3017 77.7759L25.4673 80.2871L25.1585 81.9061L11.9929 79.3949L12.3017 77.7759Z" fill="#333333"/>
<path d="M20.887 76.9357C19.9177 76.6372 19.1299 76.1799 18.5237 75.5636C17.9059 74.9439 17.4999 74.2313 17.3057 73.4261C17.115 72.6093 17.1494 71.7797 17.4088 70.9373C17.6646 70.1064 18.0656 69.4403 18.6116 68.9388C19.1577 68.4374 19.7481 68.1201 20.3829 67.9871L18.6519 67.4541L19.1423 65.8615L28.6282 68.7825L28.1378 70.375L26.3722 69.8313C26.8301 70.3135 27.1478 70.923 27.3252 71.6599C27.4946 72.3816 27.4532 73.1522 27.2009 73.9715C26.9415 74.814 26.4992 75.5116 25.8741 76.0646C25.249 76.6175 24.501 76.9747 23.6301 77.136C22.7592 77.2974 21.8448 77.2307 20.887 76.9357ZM23.3775 68.9092C22.6621 68.6889 21.9945 68.6413 21.3748 68.7663C20.7551 68.8913 20.2304 69.1593 19.8007 69.5703C19.3629 69.9661 19.0534 70.4583 18.8722 71.0468C18.691 71.6354 18.6642 72.2146 18.7919 72.7846C18.9196 73.3546 19.2045 73.8655 19.6465 74.3175C20.0885 74.7694 20.6672 75.1056 21.3827 75.3259C22.1097 75.5498 22.7889 75.6009 23.4201 75.4795C24.0398 75.3544 24.5685 75.094 25.0062 74.6981C25.4324 74.2987 25.7361 73.8048 25.9174 73.2162C26.0986 72.6277 26.1253 72.0484 25.9976 71.4785C25.8619 70.8934 25.5731 70.3749 25.1311 69.923C24.6775 69.4674 24.093 69.1295 23.3775 68.9092Z" fill="#333333"/>
<path d="M22.4328 58.1681C22.9685 57.086 23.7325 56.3729 24.7248 56.0288C25.7062 55.6793 26.8137 55.8099 28.0473 56.4206L33.2902 59.0162L32.567 60.4771L27.5351 57.986C26.6478 57.5467 25.8616 57.4337 25.1767 57.647C24.4809 57.8549 23.9428 58.3431 23.5625 59.1114C23.1767 59.8905 23.1122 60.6333 23.3688 61.3397C23.6307 62.0352 24.227 62.6134 25.1576 63.0741L30.0759 65.5089L29.3446 66.986L20.4496 62.5824L21.1808 61.1053L22.4469 61.7321C22.1371 61.2149 21.9809 60.6458 21.9785 60.0249C21.9814 59.393 22.1328 58.7741 22.4328 58.1681Z" fill="#333333"/>
<path d="M28.6553 50.431L33.5327 53.6615C33.9354 53.9282 34.279 54.0327 34.5635 53.9749C34.8379 53.9104 35.1151 53.6668 35.3952 53.244L36.0653 52.2323L37.228 53.0024L36.4079 54.2406C35.9011 55.0057 35.3449 55.4628 34.7392 55.612C34.1335 55.7611 33.428 55.569 32.6226 55.0356L27.7452 51.8052L27.0351 52.8773L25.9026 52.1272L26.6127 51.0551L24.5289 49.6749L25.439 48.3007L27.5228 49.6809L28.953 47.5216L30.0855 48.2717L28.6553 50.431Z" fill="#333333"/>
<path d="M41.9605 47.2804C41.7526 47.5157 41.4953 47.6428 41.1885 47.6618C40.8817 47.6807 40.6107 47.5863 40.3754 47.3784C40.1401 47.1706 40.013 46.9132 39.994 46.6065C39.9751 46.2997 40.0695 46.0286 40.2774 45.7934C40.4772 45.5671 40.7265 45.4491 41.0253 45.4391C41.3321 45.4202 41.6032 45.5146 41.8384 45.7225C42.0737 45.9303 42.2008 46.1877 42.2198 46.4944C42.2468 46.7922 42.1603 47.0542 41.9605 47.2804Z" fill="#333333"/>
<path d="M43.1645 34.459C43.0612 33.8128 43.1407 33.1429 43.4029 32.4494C43.667 31.739 44.1324 31.1143 44.799 30.5753C45.4845 30.021 46.237 29.6843 47.0567 29.565C47.8858 29.4381 48.7029 29.546 49.508 29.8888C50.3056 30.2222 51.0232 30.7833 51.6609 31.572C52.291 32.3513 52.6932 33.1752 52.8675 34.0436C53.0417 34.912 52.9838 35.743 52.6938 36.5366C52.4131 37.3225 51.9301 37.9926 51.2447 38.5468C50.5874 39.0783 49.8876 39.4034 49.1452 39.5223C48.4046 39.6242 47.7245 39.5608 47.1047 39.3321L51.2158 44.4165L49.9342 45.4528L40.7327 34.0729L42.0143 33.0366L43.1645 34.459ZM50.3511 32.6311C49.8804 32.0489 49.3531 31.6368 48.7691 31.3947C48.1851 31.1526 47.6002 31.0821 47.0142 31.1832C46.4377 31.2767 45.9099 31.5171 45.4311 31.9043C44.9616 32.2839 44.6199 32.7543 44.406 33.3154C44.1938 33.8597 44.1441 34.4511 44.2568 35.0898C44.3713 35.7115 44.6601 36.3087 45.1232 36.8815C45.5939 37.4636 46.1251 37.8805 46.7166 38.132C47.31 38.3665 47.8987 38.4417 48.4829 38.3575C49.0688 38.2564 49.5965 38.0161 50.066 37.6365C50.5449 37.2493 50.8904 36.7836 51.1025 36.2394C51.3165 35.6782 51.3662 35.0867 51.2517 34.465C51.1296 33.8339 50.8294 33.2226 50.3511 32.6311Z" fill="#333333"/>
<path d="M50.4294 22.5432L57.6243 33.8512L56.2337 34.736L49.0388 23.428L50.4294 22.5432Z" fill="#333333"/>
<path d="M56.9918 28.1799C56.5451 27.2693 56.3386 26.3821 56.3722 25.5183C56.4006 24.6437 56.6415 23.8598 57.095 23.1667C57.5594 22.4682 58.1872 21.9249 58.9786 21.5368C59.7592 21.154 60.5192 20.9897 61.2586 21.044C61.998 21.0982 62.6336 21.311 63.1653 21.6823L62.3678 20.0561L63.8638 19.3224L68.2344 28.2337L66.7384 28.9675L65.9249 27.3088C65.8874 27.9727 65.661 28.6217 65.2457 29.2557C64.836 29.8736 64.2462 30.3713 63.4765 30.7488C62.6851 31.137 61.8739 31.2927 61.0429 31.2162C60.2118 31.1396 59.4392 30.8394 58.725 30.3155C58.0108 29.7916 57.4331 29.0797 56.9918 28.1799ZM64.5451 24.4955C64.2154 23.8234 63.7928 23.3045 63.2772 22.9387C62.7616 22.5729 62.2069 22.3743 61.6131 22.3427C61.0249 22.295 60.4543 22.4067 59.9014 22.6779C59.3485 22.9491 58.9082 23.3264 58.5805 23.8099C58.2528 24.2934 58.0757 24.851 58.0493 25.4826C58.0228 26.1142 58.1744 26.7661 58.5041 27.4382C58.8391 28.1212 59.267 28.651 59.7879 29.0276C60.3035 29.3934 60.8555 29.6001 61.4437 29.6478C62.0266 29.6847 62.5946 29.5675 63.1475 29.2964C63.7003 29.0252 64.1406 28.6479 64.4684 28.1644C64.8016 27.6647 64.9814 27.0991 65.0079 26.4674C65.029 25.825 64.8747 25.1677 64.5451 24.4955Z" fill="#333333"/>
<path d="M71.6264 16.4757C72.7804 16.1203 73.8235 16.1845 74.7558 16.6681C75.6845 17.1402 76.3513 18.034 76.7564 19.3496L78.4781 24.9407L76.9202 25.4204L75.2678 20.0543C74.9764 19.108 74.5178 18.4596 73.8918 18.1091C73.2624 17.747 72.5379 17.6922 71.7186 17.9445C70.8877 18.2003 70.3041 18.6643 69.9678 19.3364C69.643 20.0049 69.6334 20.8354 69.939 21.8279L71.5541 27.0728L69.9789 27.5578L67.0579 18.072L68.6331 17.5869L69.0489 18.9371C69.2112 18.3565 69.517 17.8517 69.9661 17.4228C70.4267 16.9904 70.9802 16.6747 71.6264 16.4757Z" fill="#333333"/>
<path d="M81.5971 15.6865L82.583 21.453C82.6645 21.9291 82.8236 22.251 83.0605 22.4187C83.2954 22.5746 83.6628 22.6097 84.1627 22.5243L85.3589 22.3197L85.5939 23.6944L84.13 23.9447C83.2254 24.0994 82.5114 24.0071 81.9879 23.6679C81.4644 23.3286 81.1212 22.6829 80.9584 21.7308L79.9725 15.9643L78.7049 16.181L78.476 14.842L79.7435 14.6253L79.3223 12.1616L80.9469 11.8838L81.3681 14.3475L83.9211 13.911L84.15 15.25L81.5971 15.6865Z" fill="#333333"/>
<path d="M92.9386 23.2264C92.6248 23.2361 92.3559 23.1356 92.132 22.9251C91.908 22.7146 91.7912 22.4524 91.7815 22.1386C91.7718 21.8248 91.8723 21.556 92.0828 21.332C92.2933 21.1081 92.5555 20.9912 92.8693 20.9815C93.171 20.9722 93.4278 21.073 93.6397 21.2839C93.8636 21.4945 93.9805 21.7566 93.9902 22.0704C93.9998 22.3842 93.8994 22.6531 93.6889 22.877C93.4904 23.1006 93.2403 23.2171 92.9386 23.2264Z" fill="#333333"/>
<path d="M103.418 15.3366C103.82 14.8196 104.363 14.42 105.049 14.1377C105.748 13.8452 106.522 13.7582 107.371 13.8767C108.244 13.9985 109.004 14.318 109.651 14.835C110.31 15.3537 110.79 16.0241 111.089 16.8462C111.391 17.6564 111.472 18.5637 111.331 19.5683C111.193 20.5608 110.866 21.4174 110.351 22.138C109.836 22.8586 109.189 23.384 108.412 23.7144C107.646 24.0464 106.827 24.1515 105.954 24.0297C105.117 23.9128 104.401 23.624 103.807 23.1631C103.227 22.692 102.808 22.152 102.552 21.5432L101.648 28.0189L100.016 27.7911L102.039 13.297L103.671 13.5249L103.418 15.3366ZM109.663 19.3354C109.767 18.594 109.707 17.9273 109.485 17.3355C109.263 16.7437 108.915 16.2684 108.44 15.9096C107.978 15.5525 107.442 15.3313 106.832 15.2462C106.234 15.1628 105.657 15.2346 105.101 15.4618C104.559 15.6787 104.093 16.0465 103.704 16.5652C103.328 17.0736 103.089 17.6925 102.988 18.422C102.884 19.1634 102.943 19.836 103.163 20.4398C103.397 21.0333 103.745 21.5146 104.205 21.8837C104.679 22.2425 105.215 22.4636 105.813 22.5471C106.423 22.6322 106.999 22.5663 107.542 22.3494C108.098 22.1222 108.563 21.7544 108.939 21.246C109.317 20.7257 109.558 20.0888 109.663 19.3354Z" fill="#333333"/>
<path d="M117.018 12.4858L113.709 25.4739L112.112 25.067L115.421 12.0789L117.018 12.4858Z" fill="#333333"/>
<path d="M117.404 21.1399C117.764 20.1916 118.271 19.4347 118.925 18.8692C119.583 18.2923 120.32 17.9327 121.136 17.7904C121.963 17.6523 122.789 17.7397 123.613 18.0524C124.426 18.3609 125.065 18.8037 125.53 19.3807C125.996 19.9577 126.275 20.5672 126.367 21.2092L127.01 19.5158L128.567 20.1071L125.046 29.3867L123.488 28.7955L124.143 27.0682C123.633 27.4944 123.004 27.7725 122.258 27.9024C121.526 28.0253 120.76 27.9346 119.959 27.6304C119.134 27.3177 118.467 26.8317 117.955 26.1725C117.443 25.5133 117.134 24.744 117.029 23.8646C116.924 22.9851 117.049 22.0769 117.404 21.1399ZM125.255 24.1387C125.521 23.4388 125.611 22.7756 125.526 22.1492C125.441 21.5228 125.207 20.982 124.824 20.5269C124.457 20.0647 123.986 19.7244 123.41 19.5059C122.834 19.2874 122.258 19.2236 121.681 19.3146C121.104 19.4056 120.576 19.6572 120.097 20.0694C119.617 20.4816 119.245 21.0376 118.979 21.7376C118.709 22.4488 118.615 23.1232 118.696 23.7609C118.781 24.3873 119.007 24.9316 119.374 25.3938C119.745 25.8447 120.219 26.1793 120.794 26.3978C121.37 26.6163 121.947 26.6801 122.524 26.5891C123.116 26.4911 123.652 26.236 124.131 25.8238C124.615 25.4003 124.989 24.8386 125.255 24.1387Z" fill="#333333"/>
<path d="M135.954 23.8442C137 24.4468 137.664 25.2541 137.945 26.266C138.232 27.2674 138.032 28.3645 137.345 29.5574L134.426 34.6269L133.013 33.8134L135.815 28.9479C136.309 28.0899 136.472 27.3124 136.302 26.6154C136.138 25.9079 135.684 25.3402 134.942 24.9124C134.188 24.4785 133.451 24.3674 132.73 24.5791C132.019 24.7969 131.405 25.3557 130.886 26.2555L128.148 31.0112L126.719 30.1886L131.673 21.5876L133.101 22.4102L132.396 23.6344C132.932 23.3577 133.509 23.2376 134.129 23.2741C134.76 23.3167 135.368 23.5067 135.954 23.8442Z" fill="#333333"/>
<path d="M143.291 30.5494L139.764 35.2167C139.472 35.602 139.347 35.9385 139.387 36.226C139.434 36.5039 139.66 36.7957 140.065 37.1015L141.033 37.8331L140.192 38.9457L139.007 38.0503C138.275 37.497 137.853 36.9135 137.742 36.2997C137.631 35.6859 137.866 34.9936 138.449 34.223L141.976 29.5556L140.95 28.7803L141.769 27.6966L142.795 28.4719L144.302 26.4778L145.617 27.4715L144.11 29.4656L146.176 31.0272L145.357 32.1109L143.291 30.5494Z" fill="#333333"/>
<path d="M145.563 43.9911C145.341 43.7691 145.23 43.5044 145.23 43.197C145.23 42.8896 145.341 42.625 145.563 42.403C145.785 42.181 146.049 42.07 146.357 42.07C146.664 42.07 146.929 42.181 147.151 42.403C147.364 42.6164 147.467 42.8726 147.458 43.1714C147.458 43.4788 147.347 43.7435 147.125 43.9654C146.903 44.1874 146.638 44.2984 146.331 44.2984C146.032 44.307 145.776 44.2045 145.563 43.9911Z" fill="#333333"/>
<path d="M158.256 45.9493C158.907 45.8862 159.571 46.0071 160.247 46.3118C160.939 46.6194 161.534 47.1226 162.031 47.8214C162.541 48.5398 162.831 49.3118 162.899 50.1373C162.974 50.9727 162.816 51.7815 162.424 52.5639C162.042 53.3392 161.437 54.0207 160.611 54.6083C159.794 55.1889 158.947 55.5393 158.069 55.6594C157.191 55.7795 156.366 55.6702 155.592 55.3315C154.825 55.0027 154.186 54.479 153.675 53.7606C153.185 53.0716 152.904 52.353 152.832 51.6047C152.776 50.8592 152.881 50.1843 153.148 49.5799L147.818 53.368L146.864 52.0246L158.792 43.546L159.747 44.8895L158.256 45.9493ZM159.635 53.2354C160.245 52.8016 160.689 52.3009 160.967 51.733C161.245 51.1652 161.351 50.5857 161.287 49.9946C161.229 49.4134 161.022 48.8718 160.665 48.3699C160.315 47.8778 159.867 47.5076 159.32 47.2593C158.79 47.0138 158.203 46.9275 157.559 47.0004C156.931 47.0761 156.317 47.3274 155.717 47.7541C155.106 48.1878 154.657 48.6921 154.37 49.2669C154.099 49.8446 153.987 50.4276 154.035 51.0158C154.1 51.6069 154.307 52.1485 154.657 52.6406C155.013 53.1425 155.457 53.5162 155.987 53.7617C156.534 54.01 157.121 54.0963 157.749 54.0206C158.386 53.9378 159.015 53.6761 159.635 53.2354Z" fill="#333333"/>
<path d="M169.724 53.9818L157.988 60.4556L157.192 59.0124L168.928 52.5386L169.724 53.9818Z" fill="#333333"/>
<path d="M163.689 60.1724C164.626 59.7843 165.524 59.6344 166.384 59.7226C167.255 59.8061 168.022 60.0962 168.685 60.5926C169.353 61.1003 169.855 61.7613 170.193 62.5756C170.525 63.3788 170.641 64.1477 170.54 64.8822C170.439 65.6167 170.187 66.2375 169.783 66.7447L171.456 66.0516L172.094 67.5911L162.924 71.3892L162.286 69.8497L163.993 69.1428C163.333 69.0633 162.699 68.7964 162.093 68.3418C161.502 67.8938 161.043 67.2738 160.715 66.4817C160.377 65.6673 160.273 64.8479 160.402 64.0234C160.531 63.1988 160.88 62.4468 161.448 61.7671C162.016 61.0875 162.763 60.5559 163.689 60.1724ZM166.888 67.9437C167.579 67.6573 168.124 67.2683 168.522 66.7769C168.919 66.2854 169.153 65.7444 169.222 65.1538C169.307 64.5698 169.231 63.9933 168.996 63.4244C168.76 62.8554 168.411 62.3921 167.949 62.0345C167.488 61.6768 166.942 61.4648 166.314 61.3985C165.685 61.3321 165.025 61.4422 164.333 61.7287C163.63 62.0198 163.075 62.4133 162.666 62.9094C162.268 63.4008 162.027 63.9386 161.942 64.5226C161.868 65.102 161.949 65.6762 162.185 66.2452C162.421 66.8141 162.769 67.2774 163.231 67.6351C163.709 67.9992 164.262 68.2145 164.891 68.2809C165.53 68.3426 166.196 68.2302 166.888 67.9437Z" fill="#333333"/>
<path d="M174.429 75.4358C174.71 76.6103 174.578 77.6471 174.036 78.5463C173.505 79.4426 172.57 80.0505 171.231 80.37L165.54 81.7279L165.162 80.1423L170.623 78.8391C171.587 78.6093 172.263 78.1934 172.653 77.5913C173.055 76.9864 173.157 76.2671 172.958 75.4332C172.756 74.5875 172.33 73.9753 171.681 73.5963C171.035 73.2292 170.207 73.1661 169.197 73.4071L163.859 74.6809L163.476 73.0777L173.131 70.774L173.513 72.3772L172.139 72.7051C172.708 72.9045 173.192 73.2421 173.591 73.7179C173.993 74.2054 174.272 74.7781 174.429 75.4358Z" fill="#333333"/>
<path d="M174.59 85.3274L168.774 85.9576C168.294 86.0097 167.963 86.1488 167.781 86.375C167.611 86.5999 167.553 86.9644 167.608 87.4686L167.738 88.675L166.352 88.8253L166.192 87.3487C166.093 86.4364 166.229 85.7294 166.6 85.2277C166.97 84.726 167.636 84.4231 168.596 84.319L174.412 83.6888L174.274 82.4103L175.624 82.264L175.763 83.5424L178.248 83.2732L178.425 84.9118L175.94 85.181L176.219 87.756L174.869 87.9023L174.59 85.3274Z" fill="#333333"/>
<path d="M174.302 102.513C174.843 102.882 175.275 103.4 175.599 104.067C175.934 104.747 176.068 105.514 176.002 106.369C175.934 107.248 175.662 108.026 175.186 108.704C174.709 109.394 174.069 109.913 173.267 110.263C172.477 110.614 171.576 110.75 170.565 110.672C169.566 110.595 168.691 110.321 167.94 109.851C167.189 109.381 166.625 108.769 166.247 108.013C165.869 107.269 165.713 106.458 165.781 105.579C165.846 104.736 166.091 104.004 166.514 103.383C166.949 102.775 167.462 102.324 168.054 102.031L161.535 101.527L161.662 99.8833L176.253 101.011L176.126 102.654L174.302 102.513ZM170.695 108.992C171.441 109.05 172.103 108.95 172.68 108.692C173.257 108.434 173.71 108.057 174.039 107.562C174.367 107.078 174.555 106.53 174.602 105.916C174.649 105.314 174.542 104.742 174.281 104.201C174.031 103.673 173.635 103.231 173.093 102.874C172.563 102.53 171.93 102.33 171.196 102.273C170.45 102.216 169.782 102.315 169.193 102.573C168.615 102.843 168.156 103.219 167.816 103.702C167.487 104.197 167.299 104.746 167.253 105.347C167.205 105.961 167.306 106.532 167.556 107.06C167.817 107.601 168.213 108.044 168.743 108.387C169.286 108.732 169.936 108.934 170.695 108.992Z" fill="#333333"/>
<path d="M177.996 115.949L164.83 113.438L165.139 111.819L178.305 114.33L177.996 115.949Z" fill="#333333"/>
<path d="M169.411 116.79C170.38 117.088 171.168 117.545 171.774 118.162C172.392 118.781 172.798 119.494 172.992 120.299C173.183 121.116 173.148 121.945 172.889 122.788C172.633 123.619 172.232 124.285 171.686 124.786C171.14 125.288 170.55 125.605 169.915 125.738L171.646 126.271L171.155 127.864L161.67 124.943L162.16 123.35L163.926 123.894C163.468 123.412 163.15 122.802 162.972 122.065C162.803 121.344 162.844 120.573 163.097 119.754C163.356 118.911 163.798 118.214 164.424 117.661C165.049 117.108 165.797 116.751 166.668 116.589C167.538 116.428 168.453 116.495 169.411 116.79ZM166.92 124.816C167.636 125.036 168.303 125.084 168.923 124.959C169.543 124.834 170.067 124.566 170.497 124.155C170.935 123.759 171.244 123.267 171.425 122.678C171.607 122.09 171.633 121.511 171.506 120.941C171.378 120.371 171.093 119.86 170.651 119.408C170.209 118.956 169.63 118.62 168.915 118.399C168.188 118.175 167.509 118.124 166.878 118.246C166.258 118.371 165.729 118.631 165.291 119.027C164.865 119.427 164.562 119.92 164.38 120.509C164.199 121.098 164.172 121.677 164.3 122.247C164.436 122.832 164.725 123.35 165.167 123.802C165.62 124.258 166.205 124.596 166.92 124.816Z" fill="#333333"/>
<path d="M167.865 135.557C167.329 136.639 166.565 137.352 165.573 137.696C164.591 138.046 163.484 137.915 162.25 137.305L157.007 134.709L157.731 133.248L162.763 135.739C163.65 136.179 164.436 136.292 165.121 136.078C165.817 135.87 166.355 135.382 166.735 134.614C167.121 133.835 167.186 133.092 166.929 132.386C166.667 131.69 166.071 131.112 165.14 130.651L160.222 128.216L160.953 126.739L169.848 131.143L169.117 132.62L167.851 131.993C168.161 132.51 168.317 133.079 168.319 133.7C168.316 134.332 168.165 134.951 167.865 135.557Z" fill="#333333"/>
<path d="M161.642 143.294L156.765 140.064C156.362 139.797 156.019 139.693 155.734 139.75C155.46 139.815 155.183 140.058 154.903 140.481L154.232 141.493L153.07 140.723L153.89 139.485C154.397 138.72 154.953 138.262 155.558 138.113C156.164 137.964 156.87 138.156 157.675 138.69L162.552 141.92L163.263 140.848L164.395 141.598L163.685 142.67L165.769 144.05L164.859 145.425L162.775 144.044L161.345 146.204L160.212 145.454L161.642 143.294Z" fill="#333333"/>
<path d="M148.337 146.445C148.545 146.21 148.802 146.082 149.109 146.063C149.416 146.045 149.687 146.139 149.922 146.347C150.158 146.555 150.285 146.812 150.304 147.119C150.323 147.426 150.228 147.697 150.02 147.932C149.82 148.158 149.571 148.276 149.272 148.286C148.966 148.305 148.695 148.211 148.459 148.003C148.224 147.795 148.097 147.538 148.078 147.231C148.051 146.933 148.137 146.671 148.337 146.445Z" fill="#333333"/>
<path d="M147.133 159.266C147.237 159.912 147.157 160.582 146.895 161.276C146.631 161.986 146.165 162.611 145.499 163.15C144.813 163.704 144.061 164.041 143.241 164.16C142.412 164.287 141.595 164.179 140.79 163.836C139.992 163.503 139.275 162.942 138.637 162.153C138.007 161.374 137.604 160.55 137.43 159.682C137.256 158.813 137.314 157.982 137.604 157.189C137.885 156.403 138.368 155.733 139.053 155.178C139.71 154.647 140.41 154.322 141.152 154.203C141.893 154.101 142.573 154.164 143.193 154.393L139.082 149.309L140.364 148.272L149.565 159.652L148.283 160.689L147.133 159.266ZM139.947 161.094C140.417 161.676 140.945 162.088 141.529 162.331C142.113 162.573 142.698 162.643 143.283 162.542C143.86 162.449 144.388 162.208 144.867 161.821C145.336 161.441 145.678 160.971 145.892 160.41C146.104 159.866 146.154 159.274 146.041 158.635C145.926 158.014 145.638 157.417 145.174 156.844C144.704 156.262 144.173 155.845 143.581 155.593C142.988 155.359 142.399 155.284 141.815 155.368C141.229 155.469 140.701 155.709 140.232 156.089C139.753 156.476 139.407 156.942 139.195 157.486C138.981 158.047 138.932 158.639 139.046 159.26C139.168 159.891 139.468 160.503 139.947 161.094Z" fill="#333333"/>
<path d="M139.868 171.182L132.673 159.874L134.064 158.989L141.259 170.297L139.868 171.182Z" fill="#333333"/>
<path d="M133.306 165.545C133.753 166.456 133.959 167.343 133.925 168.207C133.897 169.082 133.656 169.865 133.203 170.559C132.738 171.257 132.11 171.8 131.319 172.188C130.539 172.571 129.779 172.736 129.039 172.681C128.3 172.627 127.664 172.414 127.132 172.043L127.93 173.669L126.434 174.403L122.063 165.492L123.559 164.758L124.373 166.416C124.41 165.753 124.637 165.104 125.052 164.47C125.462 163.852 126.051 163.354 126.821 162.976C127.613 162.588 128.424 162.433 129.255 162.509C130.086 162.586 130.858 162.886 131.573 163.41C132.287 163.934 132.865 164.646 133.306 165.545ZM125.753 169.23C126.082 169.902 126.505 170.421 127.02 170.787C127.536 171.152 128.091 171.351 128.685 171.383C129.273 171.43 129.843 171.319 130.396 171.047C130.949 170.776 131.389 170.399 131.717 169.915C132.045 169.432 132.222 168.874 132.248 168.243C132.275 167.611 132.123 166.959 131.794 166.287C131.459 165.604 131.031 165.074 130.51 164.698C129.994 164.332 129.442 164.125 128.854 164.077C128.271 164.041 127.703 164.158 127.15 164.429C126.597 164.7 126.157 165.077 125.829 165.561C125.496 166.061 125.316 166.626 125.29 167.258C125.269 167.9 125.423 168.558 125.753 169.23Z" fill="#333333"/>
<path d="M118.671 177.25C117.517 177.605 116.474 177.541 115.542 177.057C114.613 176.585 113.946 175.691 113.541 174.376L111.82 168.785L113.377 168.305L115.03 173.671C115.321 174.617 115.78 175.266 116.406 175.616C117.035 175.978 117.76 176.033 118.579 175.781C119.41 175.525 119.994 175.061 120.33 174.389C120.655 173.72 120.664 172.89 120.359 171.897L118.744 166.652L120.319 166.167L123.24 175.653L121.665 176.138L121.249 174.788C121.086 175.369 120.781 175.874 120.332 176.302C119.871 176.735 119.318 177.051 118.671 177.25Z" fill="#333333"/>
<path d="M108.701 178.039L107.715 172.272C107.633 171.796 107.474 171.474 107.237 171.307C107.002 171.151 106.635 171.116 106.135 171.201L104.939 171.406L104.704 170.031L106.168 169.781C107.072 169.626 107.786 169.718 108.31 170.057C108.833 170.397 109.176 171.042 109.339 171.994L110.325 177.761L111.593 177.544L111.822 178.883L110.554 179.1L110.975 181.564L109.351 181.841L108.93 179.378L106.377 179.814L106.148 178.475L108.701 178.039Z" fill="#333333"/>
<path d="M97.3591 170.499C97.6729 170.489 97.9417 170.59 98.1657 170.8C98.3896 171.011 98.5065 171.273 98.5162 171.587C98.5258 171.9 98.4254 172.169 98.2149 172.393C98.0044 172.617 97.7422 172.734 97.4284 172.744C97.1267 172.753 96.8699 172.652 96.658 172.441C96.4341 172.231 96.3172 171.969 96.3075 171.655C96.2978 171.341 96.3983 171.072 96.6088 170.848C96.8073 170.625 97.0574 170.508 97.3591 170.499Z" fill="#333333"/>
<path d="M86.8795 178.389C86.4782 178.906 85.9347 179.305 85.2492 179.588C84.55 179.88 83.7759 179.967 82.9268 179.849C82.0538 179.727 81.2937 179.407 80.6466 178.89C79.9875 178.372 79.508 177.701 79.2082 176.879C78.9068 176.069 78.8262 175.162 78.9664 174.157C79.1049 173.164 79.4317 172.308 79.9468 171.587C80.4619 170.867 81.1083 170.341 81.8859 170.011C82.6516 169.679 83.4709 169.574 84.3439 169.696C85.181 169.812 85.8966 170.101 86.4906 170.562C87.071 171.033 87.4894 171.573 87.7458 172.182L88.6496 165.706L90.282 165.934L88.259 180.428L86.6266 180.2L86.8795 178.389ZM80.6346 174.39C80.5312 175.131 80.5905 175.798 80.8127 176.39C81.0349 176.982 81.3831 177.457 81.8572 177.816C82.3194 178.173 82.8555 178.394 83.4654 178.479C84.0633 178.562 84.6403 178.491 85.1962 178.263C85.7386 178.047 86.2044 177.679 86.5938 177.16C86.9696 176.652 87.2083 176.033 87.3102 175.303C87.4136 174.562 87.3551 173.889 87.1346 173.285C86.9005 172.692 86.5531 172.211 86.0926 171.842C85.6184 171.483 85.0823 171.262 84.4844 171.178C83.8745 171.093 83.2984 171.159 82.7561 171.376C82.2001 171.603 81.7342 171.971 81.3585 172.479C80.9811 173 80.7398 173.636 80.6346 174.39Z" fill="#333333"/>
<path d="M73.2798 181.239L76.5886 168.251L78.1858 168.658L74.877 181.646L73.2798 181.239Z" fill="#333333"/>
<path d="M72.8933 172.585C72.5335 173.534 72.0266 174.291 71.3729 174.856C70.7149 175.433 69.9779 175.793 69.1619 175.935C68.3346 176.073 67.5089 175.986 66.6848 175.673C65.872 175.364 65.2328 174.922 64.7673 174.345C64.3018 173.768 64.0229 173.158 63.9308 172.516L63.2881 174.209L61.7303 173.618L65.252 164.339L66.8099 164.93L66.1544 166.657C66.6648 166.231 67.2934 165.953 68.0401 165.823C68.7712 165.7 69.5376 165.791 70.3391 166.095C71.1632 166.408 71.8311 166.894 72.343 167.553C72.8548 168.212 73.1634 168.981 73.2687 169.861C73.3741 170.74 73.2489 171.648 72.8933 172.585ZM65.0426 169.587C64.7769 170.286 64.6867 170.95 64.7719 171.576C64.857 172.202 65.0909 172.743 65.4735 173.198C65.8405 173.661 66.3119 174.001 66.8877 174.219C67.4634 174.438 68.0397 174.502 68.6167 174.411C69.1937 174.32 69.7218 174.068 70.2011 173.656C70.6804 173.244 71.0529 172.688 71.3185 171.988C71.5884 171.276 71.683 170.602 71.6021 169.964C71.5169 169.338 71.2909 168.794 70.9238 168.331C70.5525 167.881 70.079 167.546 69.5032 167.327C68.9275 167.109 68.3511 167.045 67.7742 167.136C67.1816 167.234 66.6457 167.489 66.1664 167.901C65.6828 168.325 65.3082 168.887 65.0426 169.587Z" fill="#333333"/>
<path d="M54.3438 169.881C53.2975 169.278 52.6338 168.471 52.3526 167.459C52.0655 166.458 52.2654 165.361 52.9524 164.168L55.8721 159.098L57.2847 159.912L54.4825 164.777C53.9883 165.635 53.8262 166.413 53.996 167.11C54.1599 167.817 54.6133 168.385 55.3562 168.813C56.1095 169.247 56.8468 169.358 57.5679 169.146C58.2785 168.928 58.893 168.37 59.4112 167.47L62.1502 162.714L63.5784 163.537L58.6248 172.138L57.1966 171.315L57.9017 170.091C57.366 170.368 56.7883 170.488 56.1684 170.451C55.538 170.409 54.9298 170.219 54.3438 169.881Z" fill="#333333"/>
<path d="M47.007 163.176L50.5341 158.509C50.8253 158.123 50.9509 157.787 50.9109 157.499C50.8636 157.221 50.6377 156.93 50.2331 156.624L49.2649 155.892L50.1058 154.78L51.2907 155.675C52.0228 156.228 52.4445 156.812 52.5558 157.426C52.667 158.039 52.4315 158.732 51.8491 159.502L48.3219 164.17L49.3479 164.945L48.5289 166.029L47.5029 165.253L45.996 167.247L44.681 166.254L46.188 164.26L44.1217 162.698L44.9406 161.614L47.007 163.176Z" fill="#333333"/>
<path d="M44.7352 149.734C44.9572 149.956 45.0681 150.221 45.0681 150.528C45.0681 150.836 44.9572 151.1 44.7352 151.322C44.5132 151.544 44.2485 151.655 43.9411 151.655C43.6337 151.655 43.3691 151.544 43.1471 151.322C42.9336 151.109 42.8312 150.853 42.8397 150.554C42.8397 150.246 42.9507 149.982 43.1727 149.76C43.3947 149.538 43.6594 149.427 43.9667 149.427C44.2656 149.418 44.5217 149.521 44.7352 149.734Z" fill="#333333"/>
<path d="M32.0419 147.776C31.3905 147.839 30.7268 147.718 30.051 147.413C29.3583 147.106 28.7636 146.603 28.2669 145.904C27.7563 145.185 27.4668 144.413 27.3985 143.588C27.3233 142.753 27.4816 141.944 27.8737 141.161C28.2559 140.386 28.8603 139.705 29.687 139.117C30.5039 138.536 31.3511 138.186 32.2287 138.066C33.1062 137.946 33.932 138.055 34.7061 138.394C35.4731 138.723 36.112 139.246 36.6226 139.965C37.1123 140.654 37.3935 141.372 37.4662 142.121C37.522 142.866 37.4165 143.541 37.1499 144.145L42.4792 140.357L43.4341 141.701L31.5058 150.179L30.5509 148.836L32.0419 147.776ZM30.6629 140.49C30.0527 140.924 29.6087 141.424 29.3308 141.992C29.053 142.56 28.9464 143.14 29.011 143.731C29.0686 144.312 29.2758 144.853 29.6326 145.355C29.9823 145.847 30.4306 146.218 30.9775 146.466C31.5075 146.711 32.0947 146.798 32.7392 146.725C33.3668 146.649 33.9808 146.398 34.5811 145.971C35.1913 145.537 35.6403 145.033 35.9279 144.458C36.1988 143.881 36.3103 143.298 36.2626 142.709C36.198 142.118 35.9908 141.577 35.641 141.085C35.2842 140.583 34.8408 140.209 34.3108 139.964C33.764 139.715 33.1767 139.629 32.5491 139.705C31.9117 139.787 31.2829 140.049 30.6629 140.49Z" fill="#333333"/>
<path d="M20.5741 139.743L32.3098 133.27L33.1059 134.713L21.3702 141.187L20.5741 139.743Z" fill="#333333"/>
<path d="M26.6091 133.553C25.672 133.941 24.7735 134.091 23.9136 134.003C23.0425 133.919 22.2755 133.629 21.6124 133.133C20.9447 132.625 20.4422 131.964 20.1049 131.15C19.7723 130.346 19.6564 129.578 19.7573 128.843C19.8583 128.109 20.1108 127.488 20.515 126.981L18.8417 127.674L18.204 126.134L27.374 122.336L28.0117 123.876L26.3048 124.582C26.9651 124.662 27.5984 124.929 28.2049 125.383C28.7956 125.831 29.255 126.451 29.5831 127.244C29.9204 128.058 30.0245 128.877 29.8955 129.702C29.7665 130.526 29.418 131.278 28.85 131.958C28.282 132.638 27.535 133.169 26.6091 133.553ZM23.4099 125.782C22.7183 126.068 22.1736 126.457 21.776 126.948C21.3783 127.44 21.145 127.981 21.0759 128.571C20.9911 129.155 21.0665 129.732 21.3021 130.301C21.5378 130.87 21.8865 131.333 22.3483 131.691C22.8101 132.048 23.3553 132.26 23.984 132.327C24.6127 132.393 25.2729 132.283 25.9645 131.997C26.6673 131.705 27.2231 131.312 27.6319 130.816C28.0296 130.324 28.2708 129.787 28.3556 129.203C28.4293 128.623 28.3483 128.049 28.1127 127.48C27.877 126.911 27.5283 126.448 27.0665 126.09C26.589 125.726 26.0358 125.511 25.4072 125.444C24.7673 125.383 24.1016 125.495 23.4099 125.782Z" fill="#333333"/>
<path d="M15.8684 118.289C15.5881 117.115 15.7194 116.078 16.262 115.179C16.793 114.283 17.7279 113.675 19.0668 113.355L24.7573 111.997L25.1356 113.583L19.6742 114.886C18.7111 115.116 18.0345 115.532 17.6444 116.134C17.2425 116.739 17.1411 117.458 17.3401 118.292C17.5418 119.138 17.9673 119.75 18.6163 120.129C19.2625 120.496 20.0907 120.559 21.1007 120.318L26.4388 119.044L26.8214 120.648L17.167 122.951L16.7845 121.348L18.1586 121.02C17.5897 120.821 17.1057 120.483 16.7066 120.007C16.3048 119.52 16.0253 118.947 15.8684 118.289Z" fill="#333333"/>
<path d="M15.7077 108.398L21.5239 107.768C22.0041 107.716 22.3351 107.576 22.5171 107.35C22.687 107.125 22.7447 106.761 22.6901 106.257L22.5593 105.05L23.9459 104.9L24.1059 106.377C24.2047 107.289 24.0688 107.996 23.6981 108.498C23.3273 108.999 22.6618 109.302 21.7014 109.406L15.8853 110.036L16.0238 111.315L14.6733 111.461L14.5348 110.183L12.0499 110.452L11.8723 108.813L14.3572 108.544L14.0782 105.969L15.4287 105.823L15.7077 108.398Z" fill="#333333"/>
</svg>
